<svg xmlns="http://www.w3.org/2000/svg" viewBox="0 0 1254 1254" role="img" aria-label="Wisper"><style>.reveal{stroke-dashoffset:100;animation:draw 1.2s ease-in-out forwards}.fill{opacity:0;animation:fade .7s ease-out .55s forwards}.bar{transform-box:fill-box;transform-origin:50% 100%;transform:scaleY(0)}.b1{animation:rise .5s cubic-bezier(.2,.8,.2,1) .95s forwards}.b2{animation:rise .5s cubic-bezier(.2,.8,.2,1) 1.07s forwards}.b3{animation:rise .5s cubic-bezier(.2,.8,.2,1) 1.19s forwards}.b4{animation:rise .5s cubic-bezier(.2,.8,.2,1) 1.31s forwards}.b5{animation:rise .5s cubic-bezier(.2,.8,.2,1) 1.43s forwards}@keyframes draw{to{stroke-dashoffset:0}}@keyframes fade{to{opacity:1}}@keyframes rise{to{transform:scaleY(1)}}@media(prefers-reduced-motion:reduce){.reveal{animation:none;stroke-dashoffset:0}.fill{animation:none;opacity:1}.bar{animation:none;transform:scaleY(1)}.b1,.b2,.b3,.b4,.b5{animation:none}}</style><defs><mask id="rev" maskUnits="userSpaceOnUse" x="0" y="0" width="1254" height="1254"><path class="reveal" d="M616 108Q618 108 621 108Q623 108 626 108Q628 108 631 108Q634 108 637 108Q640 108 643 108Q646 108 649 108Q652 108 655 108Q658 109 661 109Q664 109 667 109Q670 109 673 110Q676 110 679 110Q682 110 685 111Q688 111 691 112Q694 112 697 112Q700 113 703 113Q706 113 709 114Q712 114 715 115Q718 115 721 116Q724 116 727 117Q730 118 733 118Q736 119 739 120Q742 120 745 121Q748 122 751 122Q754 123 757 124Q760 125 763 126Q766 126 769 127Q772 128 775 129Q778 130 781 131Q784 132 787 133Q790 134 793 135Q796 136 799 137Q802 138 805 139Q808 140 811 142Q814 143 817 144Q820 145 823 146Q826 148 829 149Q832 150 835 152Q838 153 841 155Q844 156 847 158Q850 159 853 161Q856 163 859 164Q862 166 865 168Q868 170 871 171Q874 173 877 175Q880 177 883 179Q886 181 889 183Q892 185 895 187Q898 189 901 191Q904 193 907 195Q910 198 913 200Q916 202 919 205Q922 207 925 210Q928 212 931 215Q934 217 937 220Q940 223 943 225Q946 228 949 231Q952 234 955 237Q958 240 961 243Q963 246 966 249Q969 252 971 255Q974 258 976 261Q979 264 982 267Q984 270 986 273Q989 276 991 279Q993 282 996 285Q998 288 1000 291Q1002 294 1004 297Q1006 300 1008 303Q1010 306 1012 309Q1014 312 1015 315Q1017 318 1019 321Q1021 324 1022 327Q1024 330 1025 333Q1027 336 1028 339Q1030 342 1032 345Q1033 348 1034 351Q1036 354 1037 357Q1039 360 1040 363Q1041 366 1042 369Q1044 372 1045 375Q1046 378 1047 381Q1049 384 1050 387Q1051 390 1052 393Q1053 396 1054 399Q1055 402 1056 405Q1057 408 1058 411Q1059 414 1060 417Q1061 420 1061 423Q1062 426 1063 429Q1064 432 1064 435Q1065 438 1066 441Q1067 444 1067 447Q1068 450 1068 453Q1069 456 1070 459Q1070 462 1070 465Q1071 468 1072 471Q1072 474 1072 477Q1073 480 1073 483Q1074 486 1074 489Q1074 492 1074 495Q1075 498 1075 501Q1075 504 1075 507Q1076 510 1076 513Q1076 516 1076 519Q1076 522 1076 525Q1077 528 1077 531Q1077 534 1077 537Q1077 540 1076 543Q1076 546 1076 549Q1076 552 1076 555Q1076 558 1075 561Q1075 564 1075 567Q1075 570 1074 573Q1074 576 1074 579Q1074 582 1073 585Q1073 588 1072 591Q1072 594 1072 597Q1071 600 1070 603Q1070 606 1070 609Q1069 612 1068 615Q1068 618 1067 621Q1067 624 1066 627Q1065 630 1064 633Q1064 636 1063 639Q1062 642 1061 645Q1061 648 1060 651Q1059 654 1058 657Q1057 660 1056 663Q1055 666 1054 669Q1053 672 1052 675Q1051 678 1050 681Q1049 684 1048 687Q1047 690 1046 693Q1045 696 1044 699Q1043 702 1041 705Q1040 708 1039 711Q1038 714 1036 717Q1035 720 1033 723Q1032 726 1030 729Q1029 732 1028 735Q1026 738 1024 741Q1023 744 1021 747Q1020 750 1018 753Q1017 756 1015 759Q1013 762 1011 765Q1010 768 1008 771Q1006 774 1004 777Q1002 780 1000 783Q998 786 996 789Q994 792 992 795Q990 798 988 801Q986 804 984 807Q982 810 979 813Q977 816 975 819Q973 822 970 825Q968 828 966 831Q963 834 961 837Q958 840 956 843Q953 846 951 849Q948 852 946 855Q943 858 940 861Q938 864 935 867Q932 870 929 873Q927 876 924 879Q921 882 918 885Q915 888 912 891Q909 894 906 896Q903 899 900 902Q897 905 894 908Q891 910 888 913Q885 916 882 918Q879 921 876 923Q873 926 870 928Q867 931 864 934Q861 936 858 938Q855 941 852 943Q849 946 846 948Q843 950 840 952Q837 955 834 957Q831 959 828 961Q825 964 822 966Q819 968 816 970Q813 972 810 974Q807 976 804 978Q801 981 798 983Q795 985 792 987Q789 989 786 991Q783 993 780 994Q777 996 774 998Q771 1000 768 1002Q765 1004 762 1006Q759 1008 756 1009Q753 1011 750 1013Q747 1015 744 1016Q741 1018 738 1020Q735 1022 732 1024Q729 1025 726 1027Q723 1029 720 1030Q717 1032 714 1033Q711 1035 708 1036Q705 1038 702 1040Q699 1041 696 1042Q693 1044 690 1046Q687 1047 684 1048Q681 1050 678 1052Q675 1053 672 1054Q669 1056 666 1057Q663 1059 660 1060Q657 1062 654 1063Q651 1064 648 1066Q645 1067 642 1068Q639 1070 636 1071Q633 1072 630 1073Q627 1075 624 1076Q621 1077 618 1078Q615 1079 612 1080Q609 1082 606 1083Q603 1084 600 1085Q597 1086 594 1087Q591 1088 588 1089Q585 1090 582 1091Q579 1092 576 1093Q573 1094 570 1095Q567 1096 564 1097Q561 1098 558 1098Q555 1099 552 1100Q549 1100 546 1101Q543 1101 540 1101Q537 1101 534 1100Q531 1099 528 1098Q525 1096 523 1094Q520 1092 518 1089Q516 1087 514 1084Q513 1081 512 1078Q511 1075 511 1072Q511 1069 512 1066Q512 1063 513 1060Q514 1057 516 1054Q517 1051 518 1048Q520 1045 522 1042Q523 1039 524 1036Q526 1033 528 1030Q529 1027 530 1024Q532 1021 533 1018Q535 1015 536 1012Q538 1009 539 1006Q540 1003 542 1000Q543 997 544 994Q546 991 547 988Q548 985 550 982Q551 979 552 976Q553 973 554 970Q555 967 555 964Q555 962 555 960Q554 958 552 956Q551 955 548 954Q546 953 543 952Q540 952 537 951Q534 951 531 950Q528 950 525 949Q522 949 519 948Q516 948 513 947Q510 946 507 946Q504 945 501 944Q498 943 495 943Q492 942 489 941Q486 940 483 940Q480 939 477 938Q474 937 471 936Q468 935 465 934Q462 933 459 932Q456 931 453 930Q450 929 447 928Q444 927 441 926Q438 924 435 923Q432 922 429 921Q426 919 423 918Q420 917 417 916Q414 914 411 913Q408 912 405 910Q402 909 399 907Q396 906 393 904Q390 903 387 901Q384 899 381 898Q378 896 375 894Q372 892 369 891Q366 889 363 887Q360 885 357 883Q354 881 351 879Q348 877 345 875Q342 873 339 871Q336 869 333 866Q330 864 327 862Q324 860 321 857Q318 855 315 852Q312 850 309 847Q306 845 303 842Q300 840 297 837Q294 834 291 831Q288 829 285 826Q282 823 280 820Q277 817 274 814Q271 811 268 808Q266 805 263 802Q260 799 258 796Q255 793 253 790Q250 787 248 784Q246 781 244 778Q241 775 239 772Q237 769 235 766Q233 763 231 760Q229 757 227 754Q225 751 223 748Q221 745 220 742Q218 739 216 736Q214 733 213 730Q211 727 210 724Q208 721 206 718Q205 715 204 712Q202 709 201 706Q199 703 198 700Q197 697 196 694Q194 691 193 688Q192 685 191 682Q189 679 188 676Q187 673 186 670Q185 667 184 664Q183 661 182 658Q181 655 180 652Q179 649 178 646Q178 643 177 640Q176 637 175 634Q175 631 174 628Q173 625 173 622Q172 619 171 616Q171 613 170 610Q170 607 169 604Q169 601 168 598Q168 595 167 592Q167 589 166 586Q166 583 166 580Q165 577 165 574Q165 571 165 568Q164 565 164 562Q164 559 164 556Q164 553 164 550Q164 547 164 544Q164 541 164 538Q164 535 164 532Q164 529 164 526Q164 523 165 520Q165 517 165 514Q165 511 166 508Q166 505 166 502Q166 499 167 496Q167 493 168 490Q168 487 168 484Q169 481 170 478Q170 475 171 472Q171 469 172 466Q173 463 173 460Q174 457 175 454Q175 451 176 448Q177 445 178 442Q178 439 179 436Q180 433 181 430Q182 427 183 424Q184 421 185 418Q186 415 187 412Q188 409 189 406Q190 403 192 400Q193 397 194 394Q195 391 196 388Q198 385 199 382Q200 379 202 376Q203 373 204 370Q206 367 208 364Q209 361 210 358Q212 355 214 352Q215 349 217 346Q219 343 220 340Q222 337 224 334Q226 331 228 328Q229 325 231 322Q233 319 235 316Q237 313 240 310Q242 307 244 304Q246 301 248 298Q251 295 253 292Q255 289 258 286Q260 283 262 280Q265 277 268 274Q270 271 273 268Q275 265 278 262Q281 259 284 256Q286 253 289 250Q292 247 295 244Q298 241 301 239Q304 236 307 233Q310 230 313 228Q316 225 319 222Q322 220 325 217Q328 215 331 212Q334 210 337 207Q340 205 343 203Q346 201 349 198Q352 196 355 194Q358 192 361 190Q364 188 367 186Q370 184 373 182Q376 180 379 178Q382 177 385 175Q388 173 391 171Q394 170 397 168Q400 166 403 165Q406 163 409 162Q412 160 415 159Q418 157 421 156Q424 154 427 153Q430 152 433 150Q436 149 439 148Q442 147 445 146Q448 144 451 143Q454 142 457 141Q460 140 463 138Q466 137 469 136Q472 135 475 134Q478 133 481 132Q484 132 487 131Q490 130 493 129Q496 128 499 127Q502 126 505 126Q508 125 511 124Q514 123 517 122Q520 122 523 121Q526 120 529 120Q532 119 535 119Q538 118 541 118Q544 117 547 116Q550 116 553 116Q556 115 559 114Q562 114 565 114Q568 113 571 113Q574 112 577 112Q580 111 583 111Q586 111 589 110Q592 110 595 110Q598 110 601 110Q604 109 606 109Q609 109 611 109Q614 108 616 108Z" fill="none" stroke="#fff" stroke-width="95" stroke-linecap="round" stroke-linejoin="round" pathLength="100" stroke-dasharray="100"/></mask></defs><g class="scene"><path class="fill" d="M602 145Q604 144 607 144Q610 144 613 144Q616 144 619 144Q622 144 625 144Q628 144 631 144Q634 144 637 144Q640 144 643 144Q646 144 649 144Q652 144 655 144Q658 144 661 144Q664 144 667 145Q670 145 673 145Q676 145 679 146Q682 146 685 146Q688 147 691 147Q694 147 697 148Q700 148 703 149Q706 149 709 150Q712 150 715 151Q718 151 721 152Q724 153 727 153Q730 154 733 155Q736 155 739 156Q742 157 745 158Q748 158 751 159Q754 160 757 161Q760 161 763 162Q766 163 769 164Q772 165 775 166Q778 167 781 168Q784 169 787 170Q790 171 793 173Q796 174 799 175Q802 176 805 178Q808 179 811 180Q814 181 817 183Q820 184 823 186Q826 187 829 188Q832 190 835 192Q838 193 841 195Q844 196 847 198Q850 200 853 201Q856 203 859 205Q862 207 865 209Q868 211 871 213Q874 215 877 217Q880 219 883 221Q886 223 889 225Q892 228 895 230Q898 232 901 235Q904 237 907 240Q910 242 913 245Q916 247 919 250Q922 253 925 256Q928 258 931 261Q934 264 936 267Q939 270 942 273Q945 276 947 279Q950 282 952 285Q955 288 957 291Q960 294 962 297Q964 300 966 303Q969 306 971 309Q973 312 975 315Q977 318 979 321Q981 324 983 327Q985 330 987 333Q988 336 990 339Q992 342 994 345Q995 348 997 351Q998 354 1000 357Q1001 360 1003 363Q1004 366 1006 369Q1007 372 1008 375Q1010 378 1011 381Q1012 384 1013 387Q1015 390 1016 393Q1017 396 1018 399Q1019 402 1020 405Q1021 408 1022 411Q1023 414 1024 417Q1025 420 1026 423Q1027 426 1028 429Q1029 432 1029 435Q1030 438 1031 441Q1032 444 1032 447Q1033 450 1034 453Q1035 456 1035 459Q1036 462 1036 465Q1037 468 1038 471Q1038 474 1038 477Q1039 480 1039 483Q1040 486 1040 489Q1041 492 1041 495Q1041 498 1042 501Q1042 504 1042 507Q1042 510 1042 513Q1043 516 1043 519Q1043 522 1043 525Q1043 528 1043 531Q1043 534 1043 537Q1043 540 1043 543Q1043 546 1043 549Q1043 552 1042 555Q1042 558 1042 561Q1042 564 1042 567Q1041 570 1041 573Q1041 576 1040 579Q1040 582 1039 585Q1039 588 1038 591Q1038 594 1038 597Q1037 600 1036 603Q1036 606 1035 609Q1035 612 1034 615Q1034 618 1033 621Q1032 624 1032 627Q1031 630 1030 633Q1029 636 1028 639Q1028 642 1027 645Q1026 648 1025 651Q1024 654 1023 657Q1022 660 1021 663Q1020 666 1019 669Q1018 672 1017 675Q1016 678 1015 681Q1014 684 1013 687Q1012 690 1010 693Q1009 696 1008 699Q1007 702 1005 705Q1004 708 1002 711Q1001 714 1000 717Q998 720 996 723Q995 726 993 729Q992 732 990 735Q989 738 987 741Q985 744 984 747Q982 750 980 753Q978 756 977 759Q975 762 973 765Q971 768 969 771Q967 774 965 777Q963 780 961 783Q959 786 957 789Q955 792 952 795Q950 798 948 801Q946 804 944 807Q941 810 939 813Q936 816 934 819Q931 822 929 825Q926 828 924 831Q921 834 918 837Q916 840 913 843Q910 846 908 849Q905 852 902 855Q899 858 896 861Q893 864 890 867Q887 870 884 873Q881 876 878 879Q875 881 872 884Q869 887 866 890Q863 892 860 895Q857 898 854 900Q851 903 848 905Q845 908 842 910Q839 913 836 915Q833 917 830 920Q827 922 824 924Q821 926 818 929Q815 931 812 933Q809 935 806 938Q803 940 800 942Q797 944 794 946Q791 948 788 950Q785 952 782 954Q779 956 776 958Q773 960 770 962Q767 964 764 966Q761 968 758 970Q755 972 752 974Q749 976 746 977Q743 979 740 981Q737 983 734 984Q731 986 728 988Q725 990 722 992Q719 993 716 995Q713 997 710 998Q707 1000 704 1002Q701 1003 698 1005Q695 1007 692 1008Q689 1010 686 1011Q683 1013 680 1014Q677 1016 674 1017Q671 1019 668 1020Q665 1022 662 1023Q659 1024 656 1026Q653 1027 650 1028Q647 1030 644 1031Q641 1033 638 1034Q635 1035 632 1037Q629 1038 626 1039Q623 1041 620 1042Q617 1043 614 1044Q611 1046 608 1047Q605 1048 602 1049Q599 1050 596 1052Q593 1053 590 1054Q587 1055 584 1056Q581 1057 578 1058Q575 1059 572 1060Q569 1061 566 1062Q563 1063 560 1064Q557 1065 555 1065Q553 1065 551 1065Q550 1064 550 1063Q549 1061 550 1059Q550 1057 552 1054Q553 1051 555 1048Q556 1045 558 1042Q559 1039 561 1036Q562 1033 564 1030Q565 1027 567 1024Q568 1021 569 1018Q571 1015 572 1012Q574 1009 575 1006Q576 1003 578 1000Q579 997 580 994Q582 991 583 988Q584 985 585 982Q587 979 588 976Q589 973 590 970Q591 967 592 964Q594 961 595 958Q596 955 596 952Q597 949 598 946Q598 943 597 940Q597 937 596 934Q594 932 592 929Q590 927 588 926Q585 924 582 923Q579 922 576 922Q573 921 570 921Q567 920 564 920Q561 920 558 920Q555 919 552 919Q549 919 546 918Q543 918 540 917Q537 917 534 916Q531 916 528 915Q525 915 522 914Q519 914 516 913Q513 912 510 912Q507 911 504 910Q501 909 498 909Q495 908 492 907Q489 906 486 906Q483 905 480 904Q477 903 474 902Q471 901 468 900Q465 899 462 898Q459 897 456 896Q453 895 450 893Q447 892 444 891Q441 890 438 888Q435 887 432 886Q429 885 426 883Q423 882 420 880Q417 879 414 878Q411 876 408 874Q405 873 402 871Q399 870 396 868Q393 866 390 864Q387 863 384 861Q381 859 378 857Q375 856 372 854Q369 852 366 850Q363 848 360 845Q357 843 354 841Q351 839 348 836Q345 834 342 832Q339 830 336 827Q333 825 330 822Q327 820 324 817Q321 814 318 811Q315 809 312 806Q309 803 306 800Q303 797 301 794Q298 791 295 788Q292 785 290 782Q287 779 285 776Q282 773 280 770Q277 767 275 764Q273 761 270 758Q268 755 266 752Q264 749 262 746Q260 743 258 740Q256 737 254 734Q252 731 250 728Q249 725 247 722Q245 719 244 716Q242 713 240 710Q239 707 237 704Q236 701 234 698Q233 695 231 692Q230 689 229 686Q227 683 226 680Q225 677 224 674Q222 671 221 668Q220 665 219 662Q218 659 217 656Q216 653 215 650Q214 647 213 644Q212 641 211 638Q210 635 210 632Q209 629 208 626Q207 623 207 620Q206 617 205 614Q205 611 204 608Q203 605 203 602Q202 599 202 596Q201 593 201 590Q200 587 200 584Q200 581 200 578Q199 575 199 572Q199 569 199 566Q198 563 198 560Q198 557 198 554Q198 551 198 548Q198 545 198 542Q198 539 198 536Q198 533 198 530Q198 527 198 524Q199 521 199 518Q199 515 199 512Q200 509 200 506Q200 503 201 500Q201 497 202 494Q202 491 202 488Q203 485 204 482Q204 479 205 476Q205 473 206 470Q206 467 207 464Q208 461 208 458Q209 455 210 452Q211 449 212 446Q212 443 213 440Q214 437 215 434Q216 431 217 428Q218 425 219 422Q220 419 221 416Q222 413 224 410Q225 407 226 404Q227 401 228 398Q230 395 231 392Q232 389 234 386Q235 383 237 380Q238 377 240 374Q241 371 243 368Q244 365 246 362Q248 359 250 356Q251 353 253 350Q255 347 257 344Q259 341 261 338Q263 335 265 332Q267 329 269 326Q271 323 273 320Q275 317 278 314Q280 311 282 308Q284 305 287 302Q289 299 292 296Q294 293 297 290Q300 287 303 284Q305 281 308 278Q311 275 314 272Q317 269 320 266Q323 263 326 261Q329 258 332 255Q335 252 338 250Q341 247 344 245Q347 242 350 240Q353 238 356 235Q359 233 362 231Q365 229 368 226Q371 224 374 222Q377 220 380 218Q383 216 386 214Q389 212 392 211Q395 209 398 207Q401 205 404 204Q407 202 410 200Q413 198 416 197Q419 195 422 194Q425 192 428 191Q431 189 434 188Q437 187 440 185Q443 184 446 183Q449 181 452 180Q455 179 458 178Q461 176 464 175Q467 174 470 173Q473 172 476 171Q479 170 482 169Q485 168 488 167Q491 166 494 165Q497 164 500 163Q503 162 506 162Q509 161 512 160Q515 159 518 158Q521 158 524 157Q527 156 530 156Q533 155 536 154Q539 153 542 153Q545 152 548 152Q551 151 554 150Q557 150 560 150Q563 149 566 149Q569 148 572 148Q575 147 578 147Q581 147 584 146Q587 146 590 146Q593 145 596 145Q599 145 602 145Z" fill="#ECDBFA"/><g fill="#1C1C1C"><rect class="bar b1" x="356.5" y="503" width="59" height="72" rx="29.5"/><rect class="bar b2" x="472.5" y="444.5" width="59" height="189" rx="29.5"/><rect class="bar b3" x="590.5" y="325" width="59" height="428" rx="29.5"/><rect class="bar b4" x="708.5" y="444.5" width="59" height="189" rx="29.5"/><rect class="bar b5" x="824.5" y="503" width="59" height="72" rx="29.5"/></g><path class="ring" d="M616 108Q618 108 621 108Q623 108 626 108Q628 108 631 108Q634 108 637 108Q640 108 643 108Q646 108 649 108Q652 108 655 108Q658 109 661 109Q664 109 667 109Q670 109 673 110Q676 110 679 110Q682 110 685 111Q688 111 691 112Q694 112 697 112Q700 113 703 113Q706 113 709 114Q712 114 715 115Q718 115 721 116Q724 116 727 117Q730 118 733 118Q736 119 739 120Q742 120 745 121Q748 122 751 122Q754 123 757 124Q760 125 763 126Q766 126 769 127Q772 128 775 129Q778 130 781 131Q784 132 787 133Q790 134 793 135Q796 136 799 137Q802 138 805 139Q808 140 811 142Q814 143 817 144Q820 145 823 146Q826 148 829 149Q832 150 835 152Q838 153 841 155Q844 156 847 158Q850 159 853 161Q856 163 859 164Q862 166 865 168Q868 170 871 171Q874 173 877 175Q880 177 883 179Q886 181 889 183Q892 185 895 187Q898 189 901 191Q904 193 907 195Q910 198 913 200Q916 202 919 205Q922 207 925 210Q928 212 931 215Q934 217 937 220Q940 223 943 225Q946 228 949 231Q952 234 955 237Q958 240 961 243Q963 246 966 249Q969 252 971 255Q974 258 976 261Q979 264 982 267Q984 270 986 273Q989 276 991 279Q993 282 996 285Q998 288 1000 291Q1002 294 1004 297Q1006 300 1008 303Q1010 306 1012 309Q1014 312 1015 315Q1017 318 1019 321Q1021 324 1022 327Q1024 330 1025 333Q1027 336 1028 339Q1030 342 1032 345Q1033 348 1034 351Q1036 354 1037 357Q1039 360 1040 363Q1041 366 1042 369Q1044 372 1045 375Q1046 378 1047 381Q1049 384 1050 387Q1051 390 1052 393Q1053 396 1054 399Q1055 402 1056 405Q1057 408 1058 411Q1059 414 1060 417Q1061 420 1061 423Q1062 426 1063 429Q1064 432 1064 435Q1065 438 1066 441Q1067 444 1067 447Q1068 450 1068 453Q1069 456 1070 459Q1070 462 1070 465Q1071 468 1072 471Q1072 474 1072 477Q1073 480 1073 483Q1074 486 1074 489Q1074 492 1074 495Q1075 498 1075 501Q1075 504 1075 507Q1076 510 1076 513Q1076 516 1076 519Q1076 522 1076 525Q1077 528 1077 531Q1077 534 1077 537Q1077 540 1076 543Q1076 546 1076 549Q1076 552 1076 555Q1076 558 1075 561Q1075 564 1075 567Q1075 570 1074 573Q1074 576 1074 579Q1074 582 1073 585Q1073 588 1072 591Q1072 594 1072 597Q1071 600 1070 603Q1070 606 1070 609Q1069 612 1068 615Q1068 618 1067 621Q1067 624 1066 627Q1065 630 1064 633Q1064 636 1063 639Q1062 642 1061 645Q1061 648 1060 651Q1059 654 1058 657Q1057 660 1056 663Q1055 666 1054 669Q1053 672 1052 675Q1051 678 1050 681Q1049 684 1048 687Q1047 690 1046 693Q1045 696 1044 699Q1043 702 1041 705Q1040 708 1039 711Q1038 714 1036 717Q1035 720 1033 723Q1032 726 1030 729Q1029 732 1028 735Q1026 738 1024 741Q1023 744 1021 747Q1020 750 1018 753Q1017 756 1015 759Q1013 762 1011 765Q1010 768 1008 771Q1006 774 1004 777Q1002 780 1000 783Q998 786 996 789Q994 792 992 795Q990 798 988 801Q986 804 984 807Q982 810 979 813Q977 816 975 819Q973 822 970 825Q968 828 966 831Q963 834 961 837Q958 840 956 843Q953 846 951 849Q948 852 946 855Q943 858 940 861Q938 864 935 867Q932 870 929 873Q927 876 924 879Q921 882 918 885Q915 888 912 891Q909 894 906 896Q903 899 900 902Q897 905 894 908Q891 910 888 913Q885 916 882 918Q879 921 876 923Q873 926 870 928Q867 931 864 934Q861 936 858 938Q855 941 852 943Q849 946 846 948Q843 950 840 952Q837 955 834 957Q831 959 828 961Q825 964 822 966Q819 968 816 970Q813 972 810 974Q807 976 804 978Q801 981 798 983Q795 985 792 987Q789 989 786 991Q783 993 780 994Q777 996 774 998Q771 1000 768 1002Q765 1004 762 1006Q759 1008 756 1009Q753 1011 750 1013Q747 1015 744 1016Q741 1018 738 1020Q735 1022 732 1024Q729 1025 726 1027Q723 1029 720 1030Q717 1032 714 1033Q711 1035 708 1036Q705 1038 702 1040Q699 1041 696 1042Q693 1044 690 1046Q687 1047 684 1048Q681 1050 678 1052Q675 1053 672 1054Q669 1056 666 1057Q663 1059 660 1060Q657 1062 654 1063Q651 1064 648 1066Q645 1067 642 1068Q639 1070 636 1071Q633 1072 630 1073Q627 1075 624 1076Q621 1077 618 1078Q615 1079 612 1080Q609 1082 606 1083Q603 1084 600 1085Q597 1086 594 1087Q591 1088 588 1089Q585 1090 582 1091Q579 1092 576 1093Q573 1094 570 1095Q567 1096 564 1097Q561 1098 558 1098Q555 1099 552 1100Q549 1100 546 1101Q543 1101 540 1101Q537 1101 534 1100Q531 1099 528 1098Q525 1096 523 1094Q520 1092 518 1089Q516 1087 514 1084Q513 1081 512 1078Q511 1075 511 1072Q511 1069 512 1066Q512 1063 513 1060Q514 1057 516 1054Q517 1051 518 1048Q520 1045 522 1042Q523 1039 524 1036Q526 1033 528 1030Q529 1027 530 1024Q532 1021 533 1018Q535 1015 536 1012Q538 1009 539 1006Q540 1003 542 1000Q543 997 544 994Q546 991 547 988Q548 985 550 982Q551 979 552 976Q553 973 554 970Q555 967 555 964Q555 962 555 960Q554 958 552 956Q551 955 548 954Q546 953 543 952Q540 952 537 951Q534 951 531 950Q528 950 525 949Q522 949 519 948Q516 948 513 947Q510 946 507 946Q504 945 501 944Q498 943 495 943Q492 942 489 941Q486 940 483 940Q480 939 477 938Q474 937 471 936Q468 935 465 934Q462 933 459 932Q456 931 453 930Q450 929 447 928Q444 927 441 926Q438 924 435 923Q432 922 429 921Q426 919 423 918Q420 917 417 916Q414 914 411 913Q408 912 405 910Q402 909 399 907Q396 906 393 904Q390 903 387 901Q384 899 381 898Q378 896 375 894Q372 892 369 891Q366 889 363 887Q360 885 357 883Q354 881 351 879Q348 877 345 875Q342 873 339 871Q336 869 333 866Q330 864 327 862Q324 860 321 857Q318 855 315 852Q312 850 309 847Q306 845 303 842Q300 840 297 837Q294 834 291 831Q288 829 285 826Q282 823 280 820Q277 817 274 814Q271 811 268 808Q266 805 263 802Q260 799 258 796Q255 793 253 790Q250 787 248 784Q246 781 244 778Q241 775 239 772Q237 769 235 766Q233 763 231 760Q229 757 227 754Q225 751 223 748Q221 745 220 742Q218 739 216 736Q214 733 213 730Q211 727 210 724Q208 721 206 718Q205 715 204 712Q202 709 201 706Q199 703 198 700Q197 697 196 694Q194 691 193 688Q192 685 191 682Q189 679 188 676Q187 673 186 670Q185 667 184 664Q183 661 182 658Q181 655 180 652Q179 649 178 646Q178 643 177 640Q176 637 175 634Q175 631 174 628Q173 625 173 622Q172 619 171 616Q171 613 170 610Q170 607 169 604Q169 601 168 598Q168 595 167 592Q167 589 166 586Q166 583 166 580Q165 577 165 574Q165 571 165 568Q164 565 164 562Q164 559 164 556Q164 553 164 550Q164 547 164 544Q164 541 164 538Q164 535 164 532Q164 529 164 526Q164 523 165 520Q165 517 165 514Q165 511 166 508Q166 505 166 502Q166 499 167 496Q167 493 168 490Q168 487 168 484Q169 481 170 478Q170 475 171 472Q171 469 172 466Q173 463 173 460Q174 457 175 454Q175 451 176 448Q177 445 178 442Q178 439 179 436Q180 433 181 430Q182 427 183 424Q184 421 185 418Q186 415 187 412Q188 409 189 406Q190 403 192 400Q193 397 194 394Q195 391 196 388Q198 385 199 382Q200 379 202 376Q203 373 204 370Q206 367 208 364Q209 361 210 358Q212 355 214 352Q215 349 217 346Q219 343 220 340Q222 337 224 334Q226 331 228 328Q229 325 231 322Q233 319 235 316Q237 313 240 310Q242 307 244 304Q246 301 248 298Q251 295 253 292Q255 289 258 286Q260 283 262 280Q265 277 268 274Q270 271 273 268Q275 265 278 262Q281 259 284 256Q286 253 289 250Q292 247 295 244Q298 241 301 239Q304 236 307 233Q310 230 313 228Q316 225 319 222Q322 220 325 217Q328 215 331 212Q334 210 337 207Q340 205 343 203Q346 201 349 198Q352 196 355 194Q358 192 361 190Q364 188 367 186Q370 184 373 182Q376 180 379 178Q382 177 385 175Q388 173 391 171Q394 170 397 168Q400 166 403 165Q406 163 409 162Q412 160 415 159Q418 157 421 156Q424 154 427 153Q430 152 433 150Q436 149 439 148Q442 147 445 146Q448 144 451 143Q454 142 457 141Q460 140 463 138Q466 137 469 136Q472 135 475 134Q478 133 481 132Q484 132 487 131Q490 130 493 129Q496 128 499 127Q502 126 505 126Q508 125 511 124Q514 123 517 122Q520 122 523 121Q526 120 529 120Q532 119 535 119Q538 118 541 118Q544 117 547 116Q550 116 553 116Q556 115 559 114Q562 114 565 114Q568 113 571 113Q574 112 577 112Q580 111 583 111Q586 111 589 110Q592 110 595 110Q598 110 601 110Q604 109 606 109Q609 109 611 109Q614 108 616 108Z M602 145Q604 144 607 144Q610 144 613 144Q616 144 619 144Q622 144 625 144Q628 144 631 144Q634 144 637 144Q640 144 643 144Q646 144 649 144Q652 144 655 144Q658 144 661 144Q664 144 667 145Q670 145 673 145Q676 145 679 146Q682 146 685 146Q688 147 691 147Q694 147 697 148Q700 148 703 149Q706 149 709 150Q712 150 715 151Q718 151 721 152Q724 153 727 153Q730 154 733 155Q736 155 739 156Q742 157 745 158Q748 158 751 159Q754 160 757 161Q760 161 763 162Q766 163 769 164Q772 165 775 166Q778 167 781 168Q784 169 787 170Q790 171 793 173Q796 174 799 175Q802 176 805 178Q808 179 811 180Q814 181 817 183Q820 184 823 186Q826 187 829 188Q832 190 835 192Q838 193 841 195Q844 196 847 198Q850 200 853 201Q856 203 859 205Q862 207 865 209Q868 211 871 213Q874 215 877 217Q880 219 883 221Q886 223 889 225Q892 228 895 230Q898 232 901 235Q904 237 907 240Q910 242 913 245Q916 247 919 250Q922 253 925 256Q928 258 931 261Q934 264 936 267Q939 270 942 273Q945 276 947 279Q950 282 952 285Q955 288 957 291Q960 294 962 297Q964 300 966 303Q969 306 971 309Q973 312 975 315Q977 318 979 321Q981 324 983 327Q985 330 987 333Q988 336 990 339Q992 342 994 345Q995 348 997 351Q998 354 1000 357Q1001 360 1003 363Q1004 366 1006 369Q1007 372 1008 375Q1010 378 1011 381Q1012 384 1013 387Q1015 390 1016 393Q1017 396 1018 399Q1019 402 1020 405Q1021 408 1022 411Q1023 414 1024 417Q1025 420 1026 423Q1027 426 1028 429Q1029 432 1029 435Q1030 438 1031 441Q1032 444 1032 447Q1033 450 1034 453Q1035 456 1035 459Q1036 462 1036 465Q1037 468 1038 471Q1038 474 1038 477Q1039 480 1039 483Q1040 486 1040 489Q1041 492 1041 495Q1041 498 1042 501Q1042 504 1042 507Q1042 510 1042 513Q1043 516 1043 519Q1043 522 1043 525Q1043 528 1043 531Q1043 534 1043 537Q1043 540 1043 543Q1043 546 1043 549Q1043 552 1042 555Q1042 558 1042 561Q1042 564 1042 567Q1041 570 1041 573Q1041 576 1040 579Q1040 582 1039 585Q1039 588 1038 591Q1038 594 1038 597Q1037 600 1036 603Q1036 606 1035 609Q1035 612 1034 615Q1034 618 1033 621Q1032 624 1032 627Q1031 630 1030 633Q1029 636 1028 639Q1028 642 1027 645Q1026 648 1025 651Q1024 654 1023 657Q1022 660 1021 663Q1020 666 1019 669Q1018 672 1017 675Q1016 678 1015 681Q1014 684 1013 687Q1012 690 1010 693Q1009 696 1008 699Q1007 702 1005 705Q1004 708 1002 711Q1001 714 1000 717Q998 720 996 723Q995 726 993 729Q992 732 990 735Q989 738 987 741Q985 744 984 747Q982 750 980 753Q978 756 977 759Q975 762 973 765Q971 768 969 771Q967 774 965 777Q963 780 961 783Q959 786 957 789Q955 792 952 795Q950 798 948 801Q946 804 944 807Q941 810 939 813Q936 816 934 819Q931 822 929 825Q926 828 924 831Q921 834 918 837Q916 840 913 843Q910 846 908 849Q905 852 902 855Q899 858 896 861Q893 864 890 867Q887 870 884 873Q881 876 878 879Q875 881 872 884Q869 887 866 890Q863 892 860 895Q857 898 854 900Q851 903 848 905Q845 908 842 910Q839 913 836 915Q833 917 830 920Q827 922 824 924Q821 926 818 929Q815 931 812 933Q809 935 806 938Q803 940 800 942Q797 944 794 946Q791 948 788 950Q785 952 782 954Q779 956 776 958Q773 960 770 962Q767 964 764 966Q761 968 758 970Q755 972 752 974Q749 976 746 977Q743 979 740 981Q737 983 734 984Q731 986 728 988Q725 990 722 992Q719 993 716 995Q713 997 710 998Q707 1000 704 1002Q701 1003 698 1005Q695 1007 692 1008Q689 1010 686 1011Q683 1013 680 1014Q677 1016 674 1017Q671 1019 668 1020Q665 1022 662 1023Q659 1024 656 1026Q653 1027 650 1028Q647 1030 644 1031Q641 1033 638 1034Q635 1035 632 1037Q629 1038 626 1039Q623 1041 620 1042Q617 1043 614 1044Q611 1046 608 1047Q605 1048 602 1049Q599 1050 596 1052Q593 1053 590 1054Q587 1055 584 1056Q581 1057 578 1058Q575 1059 572 1060Q569 1061 566 1062Q563 1063 560 1064Q557 1065 555 1065Q553 1065 551 1065Q550 1064 550 1063Q549 1061 550 1059Q550 1057 552 1054Q553 1051 555 1048Q556 1045 558 1042Q559 1039 561 1036Q562 1033 564 1030Q565 1027 567 1024Q568 1021 569 1018Q571 1015 572 1012Q574 1009 575 1006Q576 1003 578 1000Q579 997 580 994Q582 991 583 988Q584 985 585 982Q587 979 588 976Q589 973 590 970Q591 967 592 964Q594 961 595 958Q596 955 596 952Q597 949 598 946Q598 943 597 940Q597 937 596 934Q594 932 592 929Q590 927 588 926Q585 924 582 923Q579 922 576 922Q573 921 570 921Q567 920 564 920Q561 920 558 920Q555 919 552 919Q549 919 546 918Q543 918 540 917Q537 917 534 916Q531 916 528 915Q525 915 522 914Q519 914 516 913Q513 912 510 912Q507 911 504 910Q501 909 498 909Q495 908 492 907Q489 906 486 906Q483 905 480 904Q477 903 474 902Q471 901 468 900Q465 899 462 898Q459 897 456 896Q453 895 450 893Q447 892 444 891Q441 890 438 888Q435 887 432 886Q429 885 426 883Q423 882 420 880Q417 879 414 878Q411 876 408 874Q405 873 402 871Q399 870 396 868Q393 866 390 864Q387 863 384 861Q381 859 378 857Q375 856 372 854Q369 852 366 850Q363 848 360 845Q357 843 354 841Q351 839 348 836Q345 834 342 832Q339 830 336 827Q333 825 330 822Q327 820 324 817Q321 814 318 811Q315 809 312 806Q309 803 306 800Q303 797 301 794Q298 791 295 788Q292 785 290 782Q287 779 285 776Q282 773 280 770Q277 767 275 764Q273 761 270 758Q268 755 266 752Q264 749 262 746Q260 743 258 740Q256 737 254 734Q252 731 250 728Q249 725 247 722Q245 719 244 716Q242 713 240 710Q239 707 237 704Q236 701 234 698Q233 695 231 692Q230 689 229 686Q227 683 226 680Q225 677 224 674Q222 671 221 668Q220 665 219 662Q218 659 217 656Q216 653 215 650Q214 647 213 644Q212 641 211 638Q210 635 210 632Q209 629 208 626Q207 623 207 620Q206 617 205 614Q205 611 204 608Q203 605 203 602Q202 599 202 596Q201 593 201 590Q200 587 200 584Q200 581 200 578Q199 575 199 572Q199 569 199 566Q198 563 198 560Q198 557 198 554Q198 551 198 548Q198 545 198 542Q198 539 198 536Q198 533 198 530Q198 527 198 524Q199 521 199 518Q199 515 199 512Q200 509 200 506Q200 503 201 500Q201 497 202 494Q202 491 202 488Q203 485 204 482Q204 479 205 476Q205 473 206 470Q206 467 207 464Q208 461 208 458Q209 455 210 452Q211 449 212 446Q212 443 213 440Q214 437 215 434Q216 431 217 428Q218 425 219 422Q220 419 221 416Q222 413 224 410Q225 407 226 404Q227 401 228 398Q230 395 231 392Q232 389 234 386Q235 383 237 380Q238 377 240 374Q241 371 243 368Q244 365 246 362Q248 359 250 356Q251 353 253 350Q255 347 257 344Q259 341 261 338Q263 335 265 332Q267 329 269 326Q271 323 273 320Q275 317 278 314Q280 311 282 308Q284 305 287 302Q289 299 292 296Q294 293 297 290Q300 287 303 284Q305 281 308 278Q311 275 314 272Q317 269 320 266Q323 263 326 261Q329 258 332 255Q335 252 338 250Q341 247 344 245Q347 242 350 240Q353 238 356 235Q359 233 362 231Q365 229 368 226Q371 224 374 222Q377 220 380 218Q383 216 386 214Q389 212 392 211Q395 209 398 207Q401 205 404 204Q407 202 410 200Q413 198 416 197Q419 195 422 194Q425 192 428 191Q431 189 434 188Q437 187 440 185Q443 184 446 183Q449 181 452 180Q455 179 458 178Q461 176 464 175Q467 174 470 173Q473 172 476 171Q479 170 482 169Q485 168 488 167Q491 166 494 165Q497 164 500 163Q503 162 506 162Q509 161 512 160Q515 159 518 158Q521 158 524 157Q527 156 530 156Q533 155 536 154Q539 153 542 153Q545 152 548 152Q551 151 554 150Q557 150 560 150Q563 149 566 149Q569 148 572 148Q575 147 578 147Q581 147 584 146Q587 146 590 146Q593 145 596 145Q599 145 602 145Z" fill-rule="evenodd" fill="#1C1C1C" mask="url(#rev)"/></g></svg>